<svg width="48" height="48" viewBox="0 0 200 200" fill="none" xmlns="http://www.w3.org/2000/svg">
  <rect width="200" height="200" rx="32" fill="#2C1A12"/>
  <circle cx="100" cy="100" r="78" fill="#1B0F09" opacity="0.7"/>
  <path d="M100 40L135 120C137 125 134 130 128 135L102 156C101 157 99 157 98 156L72 135C66 130 63 125 65 120L100 40Z" fill="#D4A056"/>
  <path d="M100 60L125 120C126 123 124 126 121 128L103 141C102 142 100 142 99 141L80 128C77 126 75 123 76 120L100 60Z" fill="#F5EEE6"/>
  <circle cx="100" cy="100" r 8 fill="#5A3825"/>
</svg>